<?xml version="1.0" encoding="UTF-8"?>
<svg xmlns="http://www.w3.org/2000/svg" id="Layer_3" data-name="Layer 3" viewBox="0 0 64 64" width="512" height="512"><path d="M53.517,27.2l.847-1.694A15.5,15.5,0,0,0,50.708,6.915l-3.05-2.668A1,1,0,0,0,46,5a10.127,10.127,0,0,1-1.3,4.957,15.376,15.376,0,0,0-4.238-7.906l-.758-.758A1,1,0,0,0,38,2a5.893,5.893,0,0,1-5.081,5.819l-.372.051A6.339,6.339,0,0,0,33,5.535a4.535,4.535,0,0,0-7.742-3.207L25,2.586l-.258-.258A4.535,4.535,0,0,0,17,5.535a6.348,6.348,0,0,0,2.221,4.827l.712.611a10.2,10.2,0,0,0-3.876,7.168,11.035,11.035,0,0,0-6.026,9.2A6,6,0,0,0,6,33a1.019,1.019,0,0,0,.028.234l5.523,22.877A8.972,8.972,0,0,0,20.3,63H43.7a8.972,8.972,0,0,0,8.748-6.889l5.523-22.877A1.019,1.019,0,0,0,58,33,6,6,0,0,0,53.517,27.2Zm-.942-2.589-1.214,2.428A6,6,0,0,0,47,29.687a6,6,0,0,0-10,0,6.035,6.035,0,0,0-1.626-1.638l3.183-.936A26.777,26.777,0,0,0,53.668,15.624a13.433,13.433,0,0,1-1.093,8.989ZM43.1,61H37.035L38,33.034h-.006c0-.012.007-.022.007-.034a4,4,0,0,1,8-.028ZM18,32.972A4,4,0,0,1,26,33c0,.012.006.022.007.034H26L26.965,61H20.9ZM28,33a4,4,0,0,1,8,0l-.966,28H28.966ZM19,5.535a2.536,2.536,0,0,1,4.328-1.793l.965.965a1,1,0,0,0,1.414,0l.965-.965A2.536,2.536,0,0,1,31,5.535a4.357,4.357,0,0,1-1.521,3.31L25,12.683,20.521,8.844A4.353,4.353,0,0,1,19,5.535Zm2.5,6.782,2.849,2.442a1,1,0,0,0,1.3,0l5.129-4.4c.1-.085.19-.18.284-.271l2.126-.29A7.908,7.908,0,0,0,39.7,4.156a13.356,13.356,0,0,1,3.27,8.084,10.134,10.134,0,0,1-6.015,2.87l-17.116,1.9a11.113,11.113,0,0,0-1.644.32A8.179,8.179,0,0,1,21.5,12.317ZM20.056,19l17.116-1.9A12.163,12.163,0,0,0,47.828,7.053l1.564,1.368a13.485,13.485,0,0,1,3.433,4.658A24.761,24.761,0,0,1,37.992,25.2l-6.174,1.817A5.994,5.994,0,0,0,27,29.687a6,6,0,0,0-10,0A6,6,0,0,0,12.06,27,9.042,9.042,0,0,1,20.056,19ZM13.494,55.643,8,32.888A4,4,0,0,1,16,33c0,.036.017.066.02.1l-.015,0,2.869,27.736A6.965,6.965,0,0,1,13.494,55.643Zm37.012,0a6.965,6.965,0,0,1-5.38,5.2L48,33.1l-.015,0c0-.035.02-.065.02-.1a4,4,0,0,1,8-.112Z"/><path d="M9.232,13.735l2.321,1.16a1,1,0,0,0,.894,0l2.322-1.162A4.012,4.012,0,0,0,17,10.125a3.1,3.1,0,0,0-.913-2.209A3.2,3.2,0,0,0,12,7.631a3.12,3.12,0,0,0-5,2.492A4.015,4.015,0,0,0,9.232,13.735ZM10.121,9a1.13,1.13,0,0,1,.794.33l.379.378a1,1,0,0,0,1.412,0l.381-.38a1.154,1.154,0,0,1,1.585,0,1.112,1.112,0,0,1,.328.793,2.025,2.025,0,0,1-1.126,1.821L12,12.882l-1.873-.936A2.027,2.027,0,0,1,9,10.123,1.123,1.123,0,0,1,10.121,9Z"/></svg>
