<svg id="Layer_1" data-name="Layer 1" xmlns="http://www.w3.org/2000/svg" viewBox="0 0 309.7 85.02"><defs><style>.cls-1{fill:#f48d24;}</style></defs><title>top</title><path class="cls-1" d="M28.29,34.8S5.07,31.65,6.55,54.7c0,0,1.31,16,18.37,13.6h0l3,10.45a1.67,1.67,0,0,0,2.72.9c4.17-3.67,14.56-11.88,26.11-14h0S44.19,64.34,30.91,74l-2.82-9.08a2.75,2.75,0,0,0-3-2c-3.81.61-11.53.54-14.68-9C10.38,53.8,6.55,39.11,28.29,34.8Z"/><path class="cls-1" d="M34.52,82.62S48,63.89,83,65.15l-2.46-12.7S55.27,47.14,33.37,62.62c0,0,8.45-14.22,35-18.37,0,0,2.13-7.65-1.72-17.65,0,0,4.59,3,5.9,17.09,0,0,6.56-2.86,5-20.69,0,0,4,6.17,1.32,20.69,0,0,9.1-6.91,3.52-23.66,0,0-3-10.72-16.32-7.48,0,0-4.59-.18-16.08,13.33s-20.21,21.91-31.41,21a27.47,27.47,0,0,0,13-7.56c5.85-6.12,20.8-27.11,27.67-32.69,7.43-6,21.9-8.92,30.43,5.85s-5.66,36.93-5.66,36.93l5.09,21.88S57.65,66.77,34.52,82.62Z"/><path class="cls-1" d="M89.11,63.15,91,71.06s89.32-3.83,213.58,5.37C304.6,76.43,186.47,57.7,89.11,63.15Z"/></svg>